<?xml version="1.0" encoding="UTF-8"?>
<svg version="1.1" xmlns="http://www.w3.org/2000/svg" width="1000" height="1500">
<path d="M0 0 C330 0 660 0 1000 0 C1000 495 1000 990 1000 1500 C670 1500 340 1500 0 1500 C0 1005 0 510 0 0 Z " fill="#2C2948" transform="translate(0,0)"/>
<path d="M0 0 C3.63 0 7.26 0 11 0 C11.33 6.93 11.66 13.86 12 21 C13.98 19.68 15.96 18.36 18 17 C24.04816521 15.81476878 29.92800552 16.58065513 35.27734375 19.65625 C39.13269964 22.66360244 41.4691005 26.40730149 43 31 C43.64027086 38.67275405 43.87139621 45.69408221 39 52 C34.81255226 56.36658988 30.42873273 59.2700669 24.3125 59.4375 C18.59488596 59.36103859 14.65363019 57.14738274 10 54 C10 55.32 10 56.64 10 58 C6.7 58 3.4 58 0 58 C0 38.86 0 19.72 0 0 Z " fill="#F9F9FA" transform="translate(775,720)"/>
<path d="M0 0 C11 0 11 0 13.5078125 1.92504883 C14.30832031 3.27119263 14.30832031 3.27119263 15.125 4.64453125 C16.07246094 6.15200928 16.07246094 6.15200928 17.0390625 7.68994141 C18.00972656 9.32842041 18.00972656 9.32842041 19 11 C20.10701911 12.69982486 21.23650072 14.38331499 22.36669922 16.0677948 C24.27549459 18.92083633 26.13330345 21.80678405 28 24.6875 C30.64 28.750625 33.28 32.81375 36 37 C36.33 24.79 36.66 12.58 37 0 C40.63 0 44.26 0 48 0 C48 18.48 48 36.96 48 56 C37 56 37 56 33.9765625 53.421875 C33.15382159 52.22371026 32.37160793 50.99702765 31.625 49.75 C31.19074707 49.09555908 30.75649414 48.44111816 30.30908203 47.7668457 C29.36022763 46.32586284 28.42914932 44.87305943 27.51367188 43.41064453 C25.86614515 40.78682536 24.16465259 38.20358438 22.453125 35.62109375 C13.62216405 22.24432809 13.62216405 22.24432809 12 19 C11.67 31.21 11.34 43.42 11 56 C7.37 56 3.74 56 0 56 C0 37.52 0 19.04 0 0 Z " fill="#F9F9FA" transform="translate(384,722)"/>
<path d="M0 0 C30.40681818 0 30.40681818 0 36.05859375 4.71875 C36.74115234 5.60046875 36.74115234 5.60046875 37.4375 6.5 C37.91058594 7.0878125 38.38367188 7.675625 38.87109375 8.28125 C41.65110429 12.513792 41.45096612 17.13123614 41 22 C39.21025319 27.17037968 36.43920876 29.86644088 32 33 C27.33488256 34.95221365 23.11080172 35.24961747 18.125 35.125 C15.77375 35.08375 13.4225 35.0425 11 35 C11 41.93 11 48.86 11 56 C7.37 56 3.74 56 0 56 C0 37.52 0 19.04 0 0 Z " fill="#F8F8F9" transform="translate(114,722)"/>
<path d="M0 0 C1.79244141 0.01740234 1.79244141 0.01740234 3.62109375 0.03515625 C5.41740234 0.04869141 5.41740234 0.04869141 7.25 0.0625 C8.17683594 0.07410156 9.10367188 0.08570313 10.05859375 0.09765625 C10.69474609 1.93263672 10.69474609 1.93263672 11.34375 3.8046875 C14.6374118 13.27598045 17.99759237 22.71664745 21.48681641 32.11767578 C24.43605013 40.0787667 27.25724241 48.08353391 30.05859375 56.09765625 C26.09859375 56.09765625 22.13859375 56.09765625 18.05859375 56.09765625 C14.05859375 45.34765625 14.05859375 45.34765625 14.05859375 43.09765625 C6.79859375 43.09765625 -0.46140625 43.09765625 -7.94140625 43.09765625 C-8.43640625 45.57265625 -8.43640625 45.57265625 -8.94140625 48.09765625 C-9.85298324 50.80404802 -10.90355596 53.43534464 -11.94140625 56.09765625 C-15.57140625 56.09765625 -19.20140625 56.09765625 -22.94140625 56.09765625 C-21.52246273 48.61096529 -19.06965613 41.85259925 -16.25390625 34.78515625 C-12.64069078 25.57779289 -9.18923333 16.34395986 -6.01098633 6.97729492 C-3.67104531 0.12188065 -3.67104531 0.12188065 0 0 Z " fill="#FAFAFB" transform="translate(562.94140625,721.90234375)"/>
<path d="M0 0 C5.41236375 2.36137878 8.67456949 6.37148475 11.6484375 11.3828125 C13.82027586 17.89832759 13.4463512 24.49536809 10.6484375 30.7578125 C7.95283925 35.61606836 4.59708493 38.0341167 -0.3515625 40.3828125 C-1.3415625 40.8778125 -1.3415625 40.8778125 -2.3515625 41.3828125 C-9.50881363 42.1178164 -15.42648167 41.67919813 -21.3515625 37.3828125 C-26.38197171 32.35240329 -28.50876361 26.93345384 -28.7890625 19.9453125 C-28.59827784 13.89826826 -27.10655786 9.27040122 -22.890625 4.8515625 C-16.06772416 -1.10548798 -8.79328368 -2.3078718 0 0 Z " fill="#F9F9FA" transform="translate(469.3515625,737.6171875)"/>
<path d="M0 0 C5.97336416 2.25286504 9.78564639 6.38161784 13.078125 11.76171875 C15.26653464 17.07510317 14.84392395 23.9887259 13.3125 29.453125 C10.81477692 34.90648707 7.10572225 38.54724066 1.63671875 41.10546875 C-3.67771526 42.9084397 -9.26794937 42.96596024 -14.57421875 41.08984375 C-19.46199367 38.57728507 -22.4153918 35.96244775 -25 31 C-25.4125 30.236875 -25.825 29.47375 -26.25 28.6875 C-28.15599389 21.85768855 -27.21009134 15.76170375 -24.4140625 9.3046875 C-18.81839319 0.18467399 -9.86830051 -1.0272266 0 0 Z " fill="#F8F8F9" transform="translate(186,737)"/>
<path d="M0 0 C3.67286084 1.91414128 5.41534592 4.82510478 7.4375 8.375 C7.89160156 11.90185547 7.89160156 11.90185547 7.828125 15.7421875 C7.82246521 16.42177521 7.81680542 17.10136292 7.81097412 17.80154419 C7.78875351 19.95177549 7.73859198 22.10028074 7.6875 24.25 C7.66741614 25.7161216 7.64916868 27.18226958 7.6328125 28.6484375 C7.58893811 32.22451008 7.52001443 35.79958631 7.4375 39.375 C4.4675 39.375 1.4975 39.375 -1.5625 39.375 C-2.2225 38.055 -2.8825 36.735 -3.5625 35.375 C-4.305 36.014375 -5.0475 36.65375 -5.8125 37.3125 C-10.59617124 40.90025343 -15.73828728 40.93863349 -21.5625 40.375 C-26.13931459 38.54427416 -28.3106855 35.71182792 -30.5625 31.375 C-31.2126693 27.79906882 -31.30844509 25.59924211 -29.38671875 22.4453125 C-26.4721126 18.81523455 -24.11662421 16.68431071 -19.5625 15.375 C-16.75256055 15.23739278 -14.05248076 15.18488427 -11.25 15.25 C-10.50943359 15.25902344 -9.76886719 15.26804687 -9.00585938 15.27734375 C-7.19126533 15.30075787 -5.37683929 15.33662385 -3.5625 15.375 C-4.53026098 11.57952079 -4.53026098 11.57952079 -6.5625 8.375 C-8.59396057 8.09827953 -8.59396057 8.09827953 -10.9375 8.0625 C-11.72898437 8.02511719 -12.52046875 7.98773437 -13.3359375 7.94921875 C-15.74601362 8.14484926 -15.74601362 8.14484926 -16.99609375 10.37890625 C-18.5625 12.375 -18.5625 12.375 -21.26171875 12.765625 C-22.74091797 12.69601562 -22.74091797 12.69601562 -24.25 12.625 C-25.24386719 12.58890625 -26.23773437 12.5528125 -27.26171875 12.515625 C-28.40060547 12.44601562 -28.40060547 12.44601562 -29.5625 12.375 C-28.6191747 6.39046312 -25.79193281 3.04707461 -21.0625 -0.5 C-14.31600484 -2.6685163 -6.5658647 -2.94416822 0 0 Z " fill="#F8F8F9" transform="translate(757.5625,738.625)"/>
<path d="M0 0 C3.92832363 3.63666155 5.50483384 6.65012155 6.00024414 11.93920898 C6.0773077 15.96609809 6.03318221 19.97074702 5.93359375 23.99609375 C5.91350205 25.40947996 5.89525598 26.82289368 5.87890625 28.23632812 C5.83511192 31.67766058 5.76623278 35.1179495 5.68359375 38.55859375 C2.71359375 38.55859375 -0.25640625 38.55859375 -3.31640625 38.55859375 C-3.97640625 36.90859375 -4.63640625 35.25859375 -5.31640625 33.55859375 C-6.07953125 34.36296875 -6.84265625 35.16734375 -7.62890625 35.99609375 C-11.7543052 39.92961368 -15.35803212 39.89936798 -20.80859375 39.84375 C-25.37575693 39.32443082 -27.95569116 36.8285945 -31.19140625 33.80859375 C-32.91140259 30.36860106 -33.16870385 27.24959223 -32.31640625 23.55859375 C-29.61005624 18.93073523 -26.50563633 16.05770466 -21.31640625 14.55859375 C-18.5064668 14.42098653 -15.80638701 14.36847802 -13.00390625 14.43359375 C-12.26333984 14.44261719 -11.52277344 14.45164062 -10.75976562 14.4609375 C-8.94517158 14.48435162 -7.13074554 14.5202176 -5.31640625 14.55859375 C-6.30640625 12.24859375 -7.29640625 9.93859375 -8.31640625 7.55859375 C-9.77463837 7.53158945 -11.233013 7.51219588 -12.69140625 7.49609375 C-13.90957031 7.47869141 -13.90957031 7.47869141 -15.15234375 7.4609375 C-17.36577767 7.41393041 -17.36577767 7.41393041 -19.31640625 8.55859375 C-19.64640625 9.54859375 -19.97640625 10.53859375 -20.31640625 11.55859375 C-23.94640625 11.55859375 -27.57640625 11.55859375 -31.31640625 11.55859375 C-30.17794471 5.86628606 -30.17794471 5.86628606 -27.56640625 2.87109375 C-27.0765625 2.28972656 -26.58671875 1.70835937 -26.08203125 1.109375 C-19.25338069 -4.88835569 -7.66497735 -3.84102428 0 0 Z " fill="#F8F8F9" transform="translate(669.31640625,739.44140625)"/>
<path d="M0 0 C5.19016596 3.21790289 9.67683479 7.85520611 11.125 13.9375 C11.125 16.9075 11.125 19.8775 11.125 22.9375 C1.225 22.9375 -8.675 22.9375 -18.875 22.9375 C-16.53651858 28.85481018 -16.53651858 28.85481018 -12.875 30.9375 C-10.9245927 31.28915817 -10.9245927 31.28915817 -8.875 31.25 C-8.194375 31.26675781 -7.51375 31.28351562 -6.8125 31.30078125 C-4.76163627 31.1156166 -4.76163627 31.1156166 -3.48046875 29.4296875 C-1.13101748 27.2460126 0.67598976 27.63929964 3.8125 27.75 C5.30330078 27.79060547 5.30330078 27.79060547 6.82421875 27.83203125 C7.58347656 27.86683594 8.34273438 27.90164063 9.125 27.9375 C7.84972262 33.42119275 5.68926545 35.71566556 1.125 38.9375 C-4.70353426 41.68826039 -10.98451304 42.09218079 -17.19140625 40.25 C-22.7267617 37.72915501 -26.3448913 34.14857318 -28.984375 28.609375 C-31.01384788 22.52095637 -30.9296845 15.37297519 -28.25 9.5 C-22.31353952 -0.62566486 -10.96921386 -3.97541979 0 0 Z " fill="#F6F6F7" transform="translate(312.875,738.0625)"/>
<path d="M0 0 C4.51767575 2.70304449 7.86498395 6.6091215 9.625 11.5625 C9.625 15.1925 9.625 18.8225 9.625 22.5625 C0.055 22.5625 -9.515 22.5625 -19.375 22.5625 C-18.06202878 28.54788237 -18.06202878 28.54788237 -14.375 30.5625 C-10.66955413 30.76100603 -7.90494613 30.73914871 -4.375 29.5625 C-4.045 28.9025 -3.715 28.2425 -3.375 27.5625 C0.585 27.5625 4.545 27.5625 8.625 27.5625 C6.17767085 33.40889741 3.17891841 36.40746437 -2.2109375 39.67578125 C-7.41709274 41.80898926 -13.76509138 41.46074034 -19.01953125 39.65234375 C-24.31794982 36.91966021 -28.05451714 33.63993695 -29.953125 27.77734375 C-31.10677456 21.72068357 -31.12488819 15.09337264 -29.375 9.1875 C-22.06385802 -0.40837385 -11.82383122 -5.03141754 0 0 Z " fill="#F7F7F8" transform="translate(878.375,738.4375)"/>
<path d="M0 0 C3.25492571 3.34058165 4 4.22812981 4 9 C2.39667209 9.08121924 0.79215974 9.13929134 -0.8125 9.1875 C-2.15248047 9.23970703 -2.15248047 9.23970703 -3.51953125 9.29296875 C-6.49524803 8.94150614 -7.0155819 8.11671264 -9 6 C-12.62535976 5.7496423 -12.62535976 5.7496423 -16 6 C-16.33 7.32 -16.66 8.64 -17 10 C-12.99318543 11.82919796 -9.12755572 13.27886955 -4.875 14.4375 C-0.82762548 15.60797361 1.96655503 16.96655503 5 20 C6.61818178 23.23636356 6.57330409 26.5015421 6 30 C3.06854859 34.56961544 0.15809811 37.28063396 -5 39 C-11.62109406 39.73116376 -18.18659031 39.53286575 -24 36 C-27.64667914 32.83530089 -29.23609164 29.74427297 -30 25 C-26.28927478 24.70756106 -22.7018176 24.55431374 -19 25 C-16.1875 27.5 -16.1875 27.5 -14 30 C-10.87237733 30.58442963 -10.87237733 30.58442963 -8 30 C-7.34 29.34 -6.68 28.68 -6 28 C-6 26.68 -6 25.36 -6 24 C-9.63335827 22.43044266 -13.1306119 21.49197737 -17 20.6875 C-21.95519935 19.44870016 -25.22346445 18.56145126 -28 14 C-28.97425985 9.91884848 -28.9115816 6.57694823 -26.78515625 2.8984375 C-20.57618341 -4.77983426 -8.08929768 -5.86474082 0 0 Z " fill="#F9F9FA" transform="translate(237,740)"/>
<path d="M0 0 C3.63 0 7.26 0 11 0 C11.2673999 0.78238037 11.5347998 1.56476074 11.81030273 2.37084961 C13.01635209 5.89410746 14.22686365 9.41581581 15.4375 12.9375 C15.85837891 14.16919922 16.27925781 15.40089844 16.71289062 16.66992188 C17.11572266 17.83974609 17.51855469 19.00957031 17.93359375 20.21484375 C18.30540771 21.29886475 18.67722168 22.38288574 19.06030273 23.49975586 C19.76814287 25.90585315 19.76814287 25.90585315 21 27 C23.97 18.09 26.94 9.18 30 0 C33.63 0 37.26 0 41 0 C40.36164426 4.83413658 38.99536232 9.21636855 37.3125 13.76953125 C37.04993408 14.49113937 36.78736816 15.2127475 36.5168457 15.95622253 C35.96456134 17.47066544 35.40974999 18.98418897 34.85253906 20.49682617 C33.99704298 22.82053188 33.15027567 25.14728225 32.3046875 27.47460938 C31.76613289 28.9481024 31.22708785 30.42141628 30.6875 31.89453125 C30.43331299 32.59238235 30.17912598 33.29023346 29.91723633 34.00923157 C28.11593697 38.88406303 28.11593697 38.88406303 27 40 C24.81360547 40.07258946 22.62499611 40.08373783 20.4375 40.0625 C18.64119141 40.04896484 18.64119141 40.04896484 16.80859375 40.03515625 C15.88175781 40.02355469 14.95492187 40.01195312 14 40 C13.75354736 39.34104736 13.50709473 38.68209473 13.25317383 38.00317383 C12.10689516 34.9393863 10.95968394 31.87594867 9.8125 28.8125 C9.40265869 27.71655518 8.99281738 26.62061035 8.57055664 25.49145508 C6.03843205 18.73127827 3.46309057 11.99377142 0.77734375 5.29296875 C0 3 0 3 0 0 Z " fill="#FAFAFB" transform="translate(592,738)"/>
<path d="M0 0 C3.3 0 6.6 0 10 0 C10 3.3 10 6.6 10 10 C13.3 10 16.6 10 20 10 C20 13.3 20 16.6 20 20 C16.7 20 13.4 20 10 20 C10.14014682 23.3128323 10.28683615 26.62514408 10.4375 29.9375 C10.47681641 30.88302734 10.51613281 31.82855469 10.55664062 32.80273438 C10.59853516 33.70185547 10.64042969 34.60097656 10.68359375 35.52734375 C10.72025146 36.35999756 10.75690918 37.19265137 10.79467773 38.05053711 C10.79367103 40.00338858 10.79367103 40.00338858 12 41 C13.34747084 41.23075082 14.70377565 41.41153063 16.0625 41.5625 C17.361875 41.706875 18.66125 41.85125 20 42 C20 44.97 20 47.94 20 51 C7.11287104 51.6883333 7.11287104 51.6883333 3.3125 49.25 C0.42068763 46.43634472 -0.86827156 44.48838975 -1.22705078 40.43457031 C-1.21134033 39.02062988 -1.21134033 39.02062988 -1.1953125 37.578125 C-1.18886719 36.55332031 -1.18242187 35.52851562 -1.17578125 34.47265625 C-1.15902344 33.40917969 -1.14226562 32.34570312 -1.125 31.25 C-1.11597656 30.17105469 -1.10695312 29.09210937 -1.09765625 27.98046875 C-1.07411305 25.32008722 -1.04122799 22.66015664 -1 20 C-3.31 20 -5.62 20 -8 20 C-8 17.03 -8 14.06 -8 11 C-5.69 11 -3.38 11 -1 11 C-0.67 7.37 -0.34 3.74 0 0 Z " fill="#F7F7F8" transform="translate(256,727)"/>
<path d="M0 0 C2.97 0 5.94 0 9 0 C9 3.63 9 7.26 9 11 C12.63 11 16.26 11 20 11 C20 13.97 20 16.94 20 20 C16.7 20 13.4 20 10 20 C10.14014682 23.3128323 10.28683615 26.62514408 10.4375 29.9375 C10.47681641 30.88302734 10.51613281 31.82855469 10.55664062 32.80273438 C10.59853516 33.70185547 10.64042969 34.60097656 10.68359375 35.52734375 C10.72025146 36.35999756 10.75690918 37.19265137 10.79467773 38.05053711 C10.79367103 40.00338858 10.79367103 40.00338858 12 41 C13.34747084 41.23075082 14.70377565 41.41153063 16.0625 41.5625 C17.361875 41.706875 18.66125 41.85125 20 42 C20 44.97 20 47.94 20 51 C17.93816367 51.08150744 15.87538651 51.1394194 13.8125 51.1875 C12.08966797 51.23970703 12.08966797 51.23970703 10.33203125 51.29296875 C5.86585772 50.90028057 3.40040912 49.51521402 0.37695312 46.24389648 C-1.35658564 43.41890451 -1.345585 41.65665996 -1.29296875 38.359375 C-1.28330078 37.28945313 -1.27363281 36.21953125 -1.26367188 35.1171875 C-1.23853516 34.00601563 -1.21339844 32.89484375 -1.1875 31.75 C-1.17396484 30.62335937 -1.16042969 29.49671875 -1.14648438 28.3359375 C-1.11115645 25.55680736 -1.0618252 22.77864637 -1 20 C-3.31 20 -5.62 20 -8 20 C-8 17.03 -8 14.06 -8 11 C-5.69 11 -3.38 11 -1 11 C-1.01160156 10.37351562 -1.02320313 9.74703125 -1.03515625 9.1015625 C-1.04417969 8.28429687 -1.05320312 7.46703125 -1.0625 6.625 C-1.07410156 5.81289063 -1.08570313 5.00078125 -1.09765625 4.1640625 C-1 2 -1 2 0 0 Z " fill="#F9F9FA" transform="translate(495,727)"/>
<path d="M0 0 C3.63 0 7.26 0 11 0 C11 19.14 11 38.28 11 58 C7.37 58 3.74 58 0 58 C0 38.86 0 19.72 0 0 Z " fill="#F8F8F9" transform="translate(707,720)"/>
<path d="M0 0 C0 3.63 0 7.26 0 11 C-2.47395833 11.35807292 -4.94791667 11.71614583 -7.421875 12.07421875 C-11.10860997 13.39809176 -12.11070642 14.53056997 -14 18 C-14.61894105 21.93432199 -14.69654646 25.83507046 -14.75 29.8125 C-14.77964844 30.88693359 -14.80929687 31.96136719 -14.83984375 33.06835938 C-14.91033653 35.71183877 -14.95745653 38.35592311 -15 41 C-18.63 41 -22.26 41 -26 41 C-26 27.8 -26 14.6 -26 1 C-22.7 1 -19.4 1 -16 1 C-15.34 2.65 -14.68 4.3 -14 6 C-13.05125 5.195625 -12.1025 4.39125 -11.125 3.5625 C-7.28519047 0.30700931 -5.09755633 -0.11081644 0 0 Z " fill="#F6F5F7" transform="translate(358,737)"/>
<path d="M0 0 C3.3 0 6.6 0 10 0 C10 18.81 10 37.62 10 57 C6.7 57 3.4 57 0 57 C0 38.19 0 19.38 0 0 Z " fill="#FFFFFF" transform="translate(828,721)"/>
<path d="M0 0 C3.63 0 7.26 0 11 0 C11 13.2 11 26.4 11 40 C7.37 40 3.74 40 0 40 C0 26.8 0 13.6 0 0 Z " fill="#FAFAFA" transform="translate(685,738)"/>
<path d="M0 0 C3.43648574 2.73516212 4.67229207 4.16834674 5.4375 8.4453125 C5.64490666 12.78788953 5.42556222 15.30491504 3.125 19.0625 C-0.43196646 22.30561647 -3.07414491 22.33412662 -7.73828125 22.2890625 C-11.08634301 21.86115823 -12.76066981 20.44926739 -15 18 C-16.35624248 13.93127256 -16.66606438 10.24978036 -16 6 C-12.12407921 -0.98533486 -7.30812267 -1.99083342 0 0 Z " fill="#2F2C4A" transform="translate(802,747)"/>
<path d="M0 0 C2.92612619 1.82205543 5.43486248 3.86972495 7 7 C7.58118751 11.76383201 7.45088085 15.14488114 5.1875 19.4375 C3 22 3 22 0 24 C-4.47507084 24 -6.46965315 23.44007505 -9.9375 20.5625 C-12.53147154 17.01826166 -12.58875343 13.62381518 -12.36328125 9.33984375 C-11.8907245 6.29617179 -10.98485154 4.35241664 -9 2 C-5.45870816 -0.36086122 -4.17249782 -0.57269578 0 0 Z " fill="#33304E" transform="translate(464,746)"/>
<path d="M0 0 C5.80707066 4.90374856 5.80707066 4.90374856 6.203125 9.20703125 C6.36118324 17.99243536 6.36118324 17.99243536 3 22 C-0.46030991 23.73015495 -4.22544297 23.61789902 -8 23 C-11.31482039 19.85092063 -12.90038444 17.29500227 -13.25 12.75 C-12.92238008 7.83570123 -11.61759757 4.67337679 -8.1875 1.125 C-5.15998775 -0.4320063 -3.36306604 -0.54907201 0 0 Z " fill="#312E4C" transform="translate(183,746)"/>
<path d="M0 0 C13.48539786 -0.40864842 13.48539786 -0.40864842 18 3 C19.21076369 5.42152738 19.07767714 6.75423087 18.875 9.4375 C18.83117187 10.21996094 18.78734375 11.00242187 18.7421875 11.80859375 C18 14 18 14 15.87109375 15.7734375 C10.70840518 17.97899425 5.54439568 17.16801199 0 17 C0 11.39 0 5.78 0 0 Z " fill="#2E2B4A" transform="translate(125,731)"/>
<path d="M0 0 C2.06232699 2.06232699 2.56808484 3.15594031 3.5078125 5.84375 C3.77207031 6.59527344 4.03632812 7.34679687 4.30859375 8.12109375 C4.57800781 8.90613281 4.84742188 9.69117188 5.125 10.5 C5.40214844 11.28503906 5.67929687 12.07007813 5.96484375 12.87890625 C8 18.72371459 8 18.72371459 8 21 C2.72 21 -2.56 21 -8 21 C-7.04919937 17.8725237 -6.08977092 14.74816539 -5.125 11.625 C-4.85558594 10.73554687 -4.58617187 9.84609375 -4.30859375 8.9296875 C-4.04433594 8.07890625 -3.78007813 7.228125 -3.5078125 6.3515625 C-3.26691895 5.56604004 -3.02602539 4.78051758 -2.77783203 3.97119141 C-2 2 -2 2 0 0 Z " fill="#363351" transform="translate(566,736)"/>
<path d="M0 0 C2 2 2 2 2.3125 4.9375 C2 8 2 8 0.9375 9.875 C-2.1069286 11.64273274 -4.5631012 11.36823916 -8 11 C-9.9375 9.875 -9.9375 9.875 -11 8 C-11.4375 5 -11.4375 5 -11 2 C-7.81693261 -1.94700356 -4.59995823 -1.10739735 0 0 Z " fill="#F7F6F8" transform="translate(695,721)"/>
<path d="M0 0 C3.58245688 0.68386655 5.15590754 2.54816409 7.23046875 5.42578125 C7.23046875 6.41578125 7.23046875 7.40578125 7.23046875 8.42578125 C0.96046875 8.42578125 -5.30953125 8.42578125 -11.76953125 8.42578125 C-8.95277592 1.38389292 -7.42561159 -0.23015762 0 0 Z " fill="#353250" transform="translate(305.76953125,745.57421875)"/>
<path d="M0 0 C2.5625 1.75 2.5625 1.75 4 4 C4 5.32 4 6.64 4 8 C-1.94 8 -7.88 8 -14 8 C-13 3 -13 3 -11.5 1.1875 C-7.70135165 -0.61685797 -4.12604669 -0.68893624 0 0 Z " fill="#33304E" transform="translate(873,746)"/>
<path d="M0 0 C1.09054687 0.02320313 2.18109375 0.04640625 3.3046875 0.0703125 C4.40039062 0.08835937 5.49609375 0.10640625 6.625 0.125 C7.46804688 0.14820313 8.31109375 0.17140625 9.1796875 0.1953125 C8.9249776 3.93105772 8.54732442 5.77361132 6.0546875 8.6328125 C2.29140527 10.67807458 0.25920361 10.27292053 -3.8203125 9.1953125 C-4.4803125 8.5353125 -5.1403125 7.8753125 -5.8203125 7.1953125 C-5.38523274 2.84451487 -4.76642327 0.33008471 0 0 Z " fill="#373451" transform="translate(653.8203125,760.8046875)"/>
<path d="M0 0 C1.77503906 0.03480469 1.77503906 0.03480469 3.5859375 0.0703125 C5.36871094 0.09738281 5.36871094 0.09738281 7.1875 0.125 C8.10273437 0.14820313 9.01796875 0.17140625 9.9609375 0.1953125 C8.48930411 5.04970498 7.53833274 7.65231514 2.9609375 10.1953125 C-3.35485197 9.87952303 -3.35485197 9.87952303 -5.0390625 8.1953125 C-5.2265625 5.2578125 -5.2265625 5.2578125 -5.0390625 2.1953125 C-3.0390625 0.1953125 -3.0390625 0.1953125 0 0 Z " fill="#363350" transform="translate(744.0390625,760.8046875)"/>
</svg>
